<mxfile host="app.diagrams.net" agent="Mozilla/5.0 (Macintosh; Intel Mac OS X 10_15_7) AppleWebKit/605.1.15 (KHTML, like Gecko) Version/18.0 Safari/605.1.15" version="24.8.6">
  <diagram name="Page-1" id="GeN2kneWSIRuBpb3nNxm">
    <mxGraphModel dx="954" dy="548" grid="1" gridSize="10" guides="1" tooltips="1" connect="1" arrows="1" fold="1" page="1" pageScale="1" pageWidth="827" pageHeight="1169" math="0" shadow="0">
      <root>
        <mxCell id="0" />
        <mxCell id="1" parent="0" />
        <mxCell id="TN2EpZUstEkjWdaSG2v7-4" style="edgeStyle=orthogonalEdgeStyle;rounded=0;orthogonalLoop=1;jettySize=auto;html=1;entryX=0;entryY=0.5;entryDx=0;entryDy=0;" edge="1" parent="1" source="TN2EpZUstEkjWdaSG2v7-2" target="TN2EpZUstEkjWdaSG2v7-3">
          <mxGeometry relative="1" as="geometry" />
        </mxCell>
        <mxCell id="TN2EpZUstEkjWdaSG2v7-2" value="RestAPI" style="rounded=0;whiteSpace=wrap;html=1;" vertex="1" parent="1">
          <mxGeometry x="80" y="280" width="100" height="50" as="geometry" />
        </mxCell>
        <mxCell id="TN2EpZUstEkjWdaSG2v7-12" style="edgeStyle=orthogonalEdgeStyle;rounded=0;orthogonalLoop=1;jettySize=auto;html=1;entryX=0;entryY=0.5;entryDx=0;entryDy=0;" edge="1" parent="1" source="TN2EpZUstEkjWdaSG2v7-3" target="TN2EpZUstEkjWdaSG2v7-6">
          <mxGeometry relative="1" as="geometry" />
        </mxCell>
        <mxCell id="TN2EpZUstEkjWdaSG2v7-13" style="edgeStyle=orthogonalEdgeStyle;rounded=0;orthogonalLoop=1;jettySize=auto;html=1;entryX=0;entryY=0.5;entryDx=0;entryDy=0;" edge="1" parent="1" source="TN2EpZUstEkjWdaSG2v7-3" target="TN2EpZUstEkjWdaSG2v7-7">
          <mxGeometry relative="1" as="geometry" />
        </mxCell>
        <mxCell id="TN2EpZUstEkjWdaSG2v7-14" style="edgeStyle=orthogonalEdgeStyle;rounded=0;orthogonalLoop=1;jettySize=auto;html=1;entryX=0;entryY=0.5;entryDx=0;entryDy=0;" edge="1" parent="1" source="TN2EpZUstEkjWdaSG2v7-3" target="TN2EpZUstEkjWdaSG2v7-8">
          <mxGeometry relative="1" as="geometry" />
        </mxCell>
        <mxCell id="TN2EpZUstEkjWdaSG2v7-16" style="edgeStyle=orthogonalEdgeStyle;rounded=0;orthogonalLoop=1;jettySize=auto;html=1;entryX=0;entryY=0.5;entryDx=0;entryDy=0;" edge="1" parent="1" source="TN2EpZUstEkjWdaSG2v7-3" target="TN2EpZUstEkjWdaSG2v7-11">
          <mxGeometry relative="1" as="geometry" />
        </mxCell>
        <mxCell id="TN2EpZUstEkjWdaSG2v7-3" value="Topic Router" style="rounded=0;whiteSpace=wrap;html=1;" vertex="1" parent="1">
          <mxGeometry x="239" y="280" width="110" height="50" as="geometry" />
        </mxCell>
        <mxCell id="TN2EpZUstEkjWdaSG2v7-18" style="edgeStyle=orthogonalEdgeStyle;rounded=0;orthogonalLoop=1;jettySize=auto;html=1;entryX=0;entryY=0.5;entryDx=0;entryDy=0;" edge="1" parent="1" source="TN2EpZUstEkjWdaSG2v7-6" target="TN2EpZUstEkjWdaSG2v7-17">
          <mxGeometry relative="1" as="geometry" />
        </mxCell>
        <mxCell id="TN2EpZUstEkjWdaSG2v7-6" value="Stocks and ETFs&lt;div&gt;RAG&lt;/div&gt;" style="rounded=0;whiteSpace=wrap;html=1;" vertex="1" parent="1">
          <mxGeometry x="430" y="130" width="110" height="50" as="geometry" />
        </mxCell>
        <mxCell id="TN2EpZUstEkjWdaSG2v7-7" value="Investing Education&lt;div&gt;LLM&amp;nbsp;&lt;/div&gt;" style="rounded=0;whiteSpace=wrap;html=1;" vertex="1" parent="1">
          <mxGeometry x="430" y="200" width="110" height="50" as="geometry" />
        </mxCell>
        <mxCell id="TN2EpZUstEkjWdaSG2v7-8" value="Super Investors&lt;div&gt;RAG&lt;/div&gt;" style="rounded=0;whiteSpace=wrap;html=1;" vertex="1" parent="1">
          <mxGeometry x="430" y="270" width="110" height="50" as="geometry" />
        </mxCell>
        <mxCell id="TN2EpZUstEkjWdaSG2v7-10" value="Economic indicators&amp;nbsp;&lt;div&gt;RAG&lt;/div&gt;" style="rounded=0;whiteSpace=wrap;html=1;" vertex="1" parent="1">
          <mxGeometry x="430" y="340" width="110" height="50" as="geometry" />
        </mxCell>
        <mxCell id="TN2EpZUstEkjWdaSG2v7-11" value="Crypto&lt;div&gt;RAG&lt;/div&gt;" style="rounded=0;whiteSpace=wrap;html=1;" vertex="1" parent="1">
          <mxGeometry x="430" y="410" width="110" height="50" as="geometry" />
        </mxCell>
        <mxCell id="TN2EpZUstEkjWdaSG2v7-15" style="edgeStyle=orthogonalEdgeStyle;rounded=0;orthogonalLoop=1;jettySize=auto;html=1;entryX=0;entryY=0.64;entryDx=0;entryDy=0;entryPerimeter=0;" edge="1" parent="1" source="TN2EpZUstEkjWdaSG2v7-3" target="TN2EpZUstEkjWdaSG2v7-10">
          <mxGeometry relative="1" as="geometry" />
        </mxCell>
        <mxCell id="TN2EpZUstEkjWdaSG2v7-17" value="Stock Analysis Scraper" style="rounded=0;whiteSpace=wrap;html=1;" vertex="1" parent="1">
          <mxGeometry x="630" y="130" width="110" height="50" as="geometry" />
        </mxCell>
        <mxCell id="TN2EpZUstEkjWdaSG2v7-19" value="DB" style="shape=cylinder3;whiteSpace=wrap;html=1;boundedLbl=1;backgroundOutline=1;size=15;" vertex="1" parent="1">
          <mxGeometry x="655" y="240" width="60" height="80" as="geometry" />
        </mxCell>
        <mxCell id="TN2EpZUstEkjWdaSG2v7-20" style="edgeStyle=orthogonalEdgeStyle;rounded=0;orthogonalLoop=1;jettySize=auto;html=1;entryX=0.05;entryY=0.588;entryDx=0;entryDy=0;entryPerimeter=0;" edge="1" parent="1" source="TN2EpZUstEkjWdaSG2v7-8" target="TN2EpZUstEkjWdaSG2v7-19">
          <mxGeometry relative="1" as="geometry" />
        </mxCell>
        <mxCell id="TN2EpZUstEkjWdaSG2v7-21" style="edgeStyle=orthogonalEdgeStyle;rounded=0;orthogonalLoop=1;jettySize=auto;html=1;entryX=0.5;entryY=1;entryDx=0;entryDy=0;entryPerimeter=0;" edge="1" parent="1" source="TN2EpZUstEkjWdaSG2v7-10" target="TN2EpZUstEkjWdaSG2v7-19">
          <mxGeometry relative="1" as="geometry" />
        </mxCell>
        <mxCell id="TN2EpZUstEkjWdaSG2v7-22" value="DataRoma Scraper&lt;div&gt;(SuperInvestors Data)&lt;/div&gt;" style="rounded=0;whiteSpace=wrap;html=1;" vertex="1" parent="1">
          <mxGeometry x="840" y="230" width="110" height="50" as="geometry" />
        </mxCell>
        <mxCell id="TN2EpZUstEkjWdaSG2v7-23" style="edgeStyle=orthogonalEdgeStyle;rounded=0;orthogonalLoop=1;jettySize=auto;html=1;entryX=1;entryY=0.588;entryDx=0;entryDy=0;entryPerimeter=0;" edge="1" parent="1" source="TN2EpZUstEkjWdaSG2v7-22" target="TN2EpZUstEkjWdaSG2v7-19">
          <mxGeometry relative="1" as="geometry" />
        </mxCell>
        <mxCell id="TN2EpZUstEkjWdaSG2v7-24" value="AlphaVantage Client&lt;div&gt;Economic (Indicators Data)&lt;/div&gt;" style="rounded=0;whiteSpace=wrap;html=1;" vertex="1" parent="1">
          <mxGeometry x="840" y="320" width="110" height="50" as="geometry" />
        </mxCell>
        <mxCell id="TN2EpZUstEkjWdaSG2v7-25" style="edgeStyle=orthogonalEdgeStyle;rounded=0;orthogonalLoop=1;jettySize=auto;html=1;entryX=1;entryY=0.588;entryDx=0;entryDy=0;entryPerimeter=0;" edge="1" parent="1" source="TN2EpZUstEkjWdaSG2v7-24" target="TN2EpZUstEkjWdaSG2v7-19">
          <mxGeometry relative="1" as="geometry" />
        </mxCell>
        <mxCell id="TN2EpZUstEkjWdaSG2v7-27" style="edgeStyle=orthogonalEdgeStyle;rounded=0;orthogonalLoop=1;jettySize=auto;html=1;entryX=0;entryY=0.5;entryDx=0;entryDy=0;" edge="1" parent="1" source="TN2EpZUstEkjWdaSG2v7-26" target="TN2EpZUstEkjWdaSG2v7-2">
          <mxGeometry relative="1" as="geometry" />
        </mxCell>
        <mxCell id="TN2EpZUstEkjWdaSG2v7-26" value="Client" style="shape=umlActor;verticalLabelPosition=bottom;verticalAlign=top;html=1;outlineConnect=0;" vertex="1" parent="1">
          <mxGeometry y="275" width="30" height="60" as="geometry" />
        </mxCell>
        <mxCell id="TN2EpZUstEkjWdaSG2v7-28" style="edgeStyle=orthogonalEdgeStyle;rounded=0;orthogonalLoop=1;jettySize=auto;html=1;entryX=0.5;entryY=0;entryDx=0;entryDy=0;entryPerimeter=0;" edge="1" parent="1" source="TN2EpZUstEkjWdaSG2v7-17" target="TN2EpZUstEkjWdaSG2v7-19">
          <mxGeometry relative="1" as="geometry" />
        </mxCell>
      </root>
    </mxGraphModel>
  </diagram>
</mxfile>
